<?xml version="1.0" standalone="no"?>
<!DOCTYPE svg PUBLIC "-//W3C//DTD SVG 20010904//EN"
 "http://www.w3.org/TR/2001/REC-SVG-20010904/DTD/svg10.dtd">
<svg version="1.0" xmlns="http://www.w3.org/2000/svg"
 width="189.000000pt" height="189.000000pt" viewBox="0 0 189.000000 189.000000"
 preserveAspectRatio="xMidYMid meet">
<metadata>
Created by potrace 1.11, written by Peter Selinger 2001-2013
</metadata>
<g transform="translate(0.000000,189.000000) scale(0.100000,-0.100000)"
fill="#000000" stroke="none">
<path d="M789 1466 c-2 -2 -29 -6 -59 -10 -163 -18 -359 -81 -488 -158 -83
-49 -177 -145 -210 -214 -38 -82 -38 -195 0 -269 93 -181 344 -318 683 -370
90 -14 403 -14 470 0 17 3 64 13 105 21 267 55 490 192 566 349 38 79 41 184
6 259 -75 164 -296 303 -572 360 -41 8 -88 18 -105 21 -34 8 -389 18 -396 11z
m351 -20 c286 -32 548 -151 660 -299 92 -123 97 -257 12 -380 -69 -99 -215
-195 -372 -245 -108 -34 -149 -44 -230 -57 -25 -3 -58 -9 -75 -12 -47 -8 -305
-10 -355 -2 -25 4 -67 9 -95 13 -27 3 -92 17 -143 31 -444 119 -634 385 -460
642 100 147 391 282 668 308 35 3 66 7 67 9 6 5 258 -1 323 -8z"/>
<path d="M927 1403 c-4 -3 -7 -15 -7 -26 0 -11 3 -18 6 -14 4 3 19 0 35 -8 37
-20 45 -19 45 4 0 11 -3 18 -7 16 -3 -3 -14 4 -24 15 -18 20 -36 25 -48 13z"/>
<path d="M508 1373 c7 -3 16 -2 19 1 4 3 -2 6 -13 5 -11 0 -14 -3 -6 -6z"/>
<path d="M1507 1329 c7 -7 15 -10 18 -7 3 3 -2 9 -12 12 -14 6 -15 5 -6 -5z"/>
<path d="M350 1320 c-9 -6 -10 -10 -3 -10 6 0 15 5 18 10 8 12 4 12 -15 0z"/>
<path d="M920 1317 c0 -10 -12 -31 -27 -46 l-28 -27 -155 1 c-136 1 -158 -1
-179 -17 -13 -10 -34 -18 -47 -18 -13 0 -24 -4 -24 -10 0 -5 -32 -26 -71 -45
-50 -26 -68 -39 -61 -48 5 -7 8 -46 7 -88 -1 -49 3 -79 11 -87 9 -8 15 -8 19
-1 5 7 11 6 21 -2 11 -9 14 -8 14 2 0 12 2 12 9 0 6 -9 10 -10 16 -2 5 9 10 9
21 0 11 -9 14 -8 14 2 0 12 2 12 9 0 6 -9 10 -10 16 -2 5 9 10 9 21 0 11 -9
14 -8 14 2 0 12 2 12 9 0 6 -9 10 -10 16 -2 5 9 10 9 21 0 11 -9 14 -8 14 2 0
11 2 11 10 -1 9 -13 10 -13 10 0 0 13 1 13 10 0 9 -13 10 -13 10 0 0 13 1 13
10 0 9 -13 11 -13 20 0 9 13 10 13 10 0 0 -13 1 -13 10 0 9 13 10 13 10 0 0
-13 1 -13 10 0 9 13 10 13 10 0 0 -13 1 -13 10 0 9 13 10 13 10 0 0 -13 1 -13
10 0 9 13 10 13 10 0 0 -13 1 -13 10 0 9 13 10 13 10 0 0 -13 1 -13 10 0 9 13
10 13 10 0 0 -13 1 -13 10 0 9 13 10 13 10 0 0 -13 1 -13 10 0 5 8 10 10 10 3
0 -12 17 -12 37 0 6 4 15 2 19 -4 4 -8 9 -7 15 2 7 11 9 11 9 -1 0 -13 1 -13
10 0 8 12 10 12 10 1 0 -10 3 -11 14 -2 10 9 16 9 21 1 5 -8 11 -8 21 1 11 9
14 8 14 -2 0 -11 2 -11 10 1 5 8 10 10 10 3 0 -12 24 -12 36 0 4 4 13 2 21 -4
10 -9 13 -8 13 2 0 12 2 12 9 0 6 -9 10 -10 16 -2 5 9 10 9 21 0 11 -9 14 -8
14 2 0 12 2 12 9 0 6 -9 10 -10 16 -2 5 9 10 9 21 0 11 -9 14 -8 14 2 0 12 2
12 9 0 6 -9 10 -10 16 -2 5 9 10 9 21 0 11 -9 14 -8 14 2 0 12 2 12 9 0 6 -9
10 -10 16 -2 5 9 10 9 21 0 11 -9 14 -8 14 2 0 12 2 12 9 0 6 -9 10 -10 16 -2
5 9 10 9 21 0 11 -9 14 -8 14 2 0 11 2 11 10 -1 9 -13 11 -13 20 0 8 12 10 12
10 1 0 -10 3 -11 13 -2 10 8 17 7 25 -1 9 -9 12 -9 12 1 0 10 3 11 14 2 11 -9
14 4 15 81 1 50 4 95 7 100 3 4 -27 23 -66 43 -44 22 -68 40 -64 47 5 7 3 8
-5 3 -12 -7 -91 22 -91 34 0 3 -64 5 -142 5 -79 -1 -151 3 -160 8 -10 5 -27
25 -37 46 -13 24 -20 30 -21 19z"/>
<path d="M305 1300 c-3 -6 1 -7 9 -4 18 7 21 14 7 14 -6 0 -13 -4 -16 -10z"/>
<path d="M165 1206 c-22 -19 -38 -36 -35 -38 3 -2 23 14 45 34 50 47 44 49
-10 4z"/>
<path d="M1680 1237 c0 -3 18 -20 40 -37 22 -17 40 -29 40 -27 0 3 -18 20 -40
37 -22 17 -40 29 -40 27z"/>
<path d="M100 1138 c-29 -44 -32 -53 -6 -23 22 26 32 45 23 45 -1 0 -9 -10
-17 -22z"/>
<path d="M1780 1135 c13 -14 26 -25 28 -25 3 0 -5 11 -18 25 -13 14 -26 25
-28 25 -3 0 5 -11 18 -25z"/>
<path d="M1816 1087 c3 -10 9 -15 12 -12 3 3 0 11 -7 18 -10 9 -11 8 -5 -6z"/>
<path d="M46 1045 c-9 -26 -7 -32 5 -12 6 10 9 21 6 23 -2 3 -7 -2 -11 -11z"/>
<path d="M1831 1055 c1 -19 18 -51 18 -35 0 8 -4 22 -9 30 -5 8 -9 11 -9 5z"/>
<path d="M31 954 c0 -27 4 -58 9 -69 4 -12 6 7 3 45 -7 79 -13 92 -12 24z"/>
<path d="M1853 950 c0 -30 2 -43 4 -27 2 15 2 39 0 55 -2 15 -4 2 -4 -28z"/>
<path d="M318 877 c-28 -23 -36 -51 -18 -62 6 -4 8 -10 5 -15 -3 -5 0 -12 6
-16 8 -5 9 -3 4 6 -5 8 -3 11 6 8 27 -9 21 -44 -12 -72 -35 -30 -72 -31 -77
-4 -3 13 1 16 14 11 11 -4 15 -2 13 6 -6 17 -22 16 -34 -3 -16 -25 16 -50 53
-41 42 9 84 50 80 77 -2 13 6 32 19 45 23 22 22 45 -3 71 -17 16 -24 15 -56
-11z m38 -22 c-3 -9 -15 -19 -26 -22 -11 -3 -17 -10 -13 -16 3 -6 1 -7 -5 -3
-19 12 -14 44 8 51 11 3 20 11 20 18 0 8 3 8 11 0 7 -7 9 -19 5 -28z m15 -19
c-6 -14 -18 -26 -27 -26 -13 0 -11 5 8 29 27 34 32 33 19 -3z"/>
<path d="M1340 854 c-27 -26 -50 -52 -50 -58 0 -6 4 -4 10 4 5 8 12 11 16 8 3
-4 -4 -21 -16 -37 -26 -37 -23 -75 5 -78 16 -1 17 -1 2 3 -30 9 -1 64 80 154
25 27 28 36 13 45 -5 3 -32 -15 -60 -41z m20 -9 c-18 -19 -36 -32 -39 -30 -6
7 50 65 63 65 5 0 -5 -16 -24 -35z"/>
<path d="M1615 859 c-21 -19 -34 -38 -31 -46 3 -8 1 -11 -4 -8 -11 7 -33 -12
-68 -59 -13 -17 -24 -29 -25 -28 -1 2 -14 -2 -30 -9 -15 -7 -30 -10 -33 -6
-10 10 6 27 26 27 19 0 50 25 50 41 0 20 -40 7 -69 -21 -45 -46 -17 -83 35
-46 17 13 21 12 37 -1 16 -15 20 -15 47 5 16 12 37 22 47 22 13 0 15 3 5 8 -7
5 -10 16 -6 25 3 9 2 17 -4 17 -5 0 -13 -11 -16 -25 -6 -25 -52 -63 -62 -52
-12 12 40 69 87 99 47 28 69 53 69 77 0 19 -18 12 -55 -20z m39 -2 c-6 -17
-53 -51 -60 -44 -2 2 10 18 27 36 31 33 44 36 33 8z m-174 -102 c-7 -8 -17
-15 -22 -15 -6 0 -5 7 2 15 7 8 17 15 22 15 6 0 5 -7 -2 -15z"/>
<path d="M1827 845 c-10 -24 -32 -61 -48 -81 -36 -45 -39 -61 -4 -19 31 36 77
123 73 136 -2 5 -11 -11 -21 -36z"/>
<path d="M50 846 c0 -8 4 -17 9 -20 5 -4 7 3 4 14 -6 23 -13 26 -13 6z"/>
<path d="M1027 824 c-10 -11 2 -24 22 -24 10 0 25 7 32 17 13 15 12 15 -9 2
-18 -11 -24 -11 -30 -1 -5 7 -11 9 -15 6z"/>
<path d="M1377 770 c3 -12 -4 -28 -23 -45 -15 -14 -25 -27 -23 -30 3 -2 17 7
32 21 26 23 38 74 18 74 -5 0 -7 -9 -4 -20z"/>
<path d="M114 747 c16 -20 30 -37 33 -37 7 0 -36 58 -49 66 -7 4 1 -9 16 -29z"/>
<path d="M389 751 c-16 -16 -29 -34 -29 -39 0 -18 31 -22 53 -7 12 8 17 15 11
15 -5 0 -15 -5 -22 -12 -6 -6 -14 -9 -18 -6 -9 10 14 46 38 59 19 10 20 9 15
-10 -3 -11 -2 -21 3 -21 10 0 20 37 12 44 -12 13 -35 4 -63 -23z"/>
<path d="M531 756 c-19 -20 -21 -28 -12 -45 14 -26 24 -26 42 -3 11 14 11 15
-1 5 -27 -25 -31 -13 -6 20 23 30 25 47 6 47 -4 0 -17 -11 -29 -24z m13 -11
c-9 -14 -19 -23 -22 -20 -5 4 26 45 35 45 2 0 -4 -11 -13 -25z"/>
<path d="M610 753 c-22 -20 -29 -33 -25 -46 8 -19 30 -23 40 -7 3 6 -1 7 -9 4
-22 -8 -20 1 6 36 19 27 48 44 33 21 -3 -5 2 -16 11 -25 8 -9 12 -20 9 -26
-13 -20 9 -9 46 25 65 59 73 43 12 -23 -13 -14 -16 -22 -8 -22 2 0 23 18 46
40 50 48 69 52 38 9 -25 -35 -14 -58 17 -34 19 15 19 15 -1 8 -19 -6 -19 -6
-2 14 9 11 17 27 17 36 0 19 -25 23 -35 7 -5 -8 -11 -8 -19 -1 -17 15 -58 5
-77 -18 -17 -20 -42 -14 -37 9 6 25 -30 21 -62 -7z"/>
<path d="M881 754 c-17 -14 -31 -32 -31 -40 0 -23 30 -29 48 -8 16 17 16 17 0
5 -32 -24 -38 -6 -9 27 34 38 45 41 37 8 -4 -16 -2 -23 7 -22 6 0 13 -3 14 -8
1 -5 6 -12 13 -16 14 -9 78 -5 88 5 4 5 1 5 -5 1 -21 -12 -15 7 12 38 40 47
18 45 -25 -2 -35 -38 -60 -53 -60 -36 0 3 11 20 25 36 14 17 23 33 20 36 -3 4
-17 -6 -30 -22 -26 -30 -50 -27 -40 5 9 28 -27 25 -64 -7z"/>
<path d="M1233 740 c-43 -40 -78 -53 -67 -25 4 8 2 15 -4 15 -14 0 -23 -28
-11 -36 19 -12 54 5 94 46 50 51 43 51 -12 0z"/>
<path d="M1339 763 c-13 -16 -12 -17 4 -4 16 13 21 21 13 21 -2 0 -10 -8 -17
-17z"/>
<path d="M457 726 c-3 -8 1 -20 9 -27 8 -7 14 -8 13 -3 -4 21 2 28 11 14 6 -9
10 -10 10 -3 0 20 -37 35 -43 19z"/>
<path d="M180 685 c13 -14 26 -25 28 -25 3 0 -5 11 -18 25 -13 14 -26 25 -28
25 -3 0 5 -11 18 -25z"/>
<path d="M1694 678 l-19 -23 23 19 c21 18 27 26 19 26 -2 0 -12 -10 -23 -22z"/>
<path d="M257 629 c7 -7 15 -10 18 -7 3 3 -2 9 -12 12 -14 6 -15 5 -6 -5z"/>
<path d="M520 608 c0 -18 4 -28 8 -22 4 6 15 13 24 17 23 8 12 37 -13 37 -15
0 -19 -7 -19 -32z m30 12 c0 -5 -4 -10 -10 -10 -5 0 -10 5 -10 10 0 6 5 10 10
10 6 0 10 -4 10 -10z"/>
<path d="M584 606 l10 -35 13 31 c17 39 16 43 -2 28 -10 -9 -15 -9 -15 -1 0 6
-4 11 -9 11 -4 0 -3 -15 3 -34z"/>
<path d="M634 625 c-10 -24 4 -45 28 -44 l23 0 -23 10 c-26 10 -25 35 2 33 9
-1 16 2 16 7 0 15 -40 10 -46 -6z"/>
<path d="M697 633 c-22 -21 7 -69 32 -54 9 6 7 10 -9 14 -25 6 -22 33 4 31 9
-1 16 2 16 7 0 10 -34 12 -43 2z"/>
<path d="M757 634 c-10 -11 -9 -54 2 -54 14 0 22 30 13 46 -4 8 -11 11 -15 8z"/>
<path d="M780 629 c0 -5 5 -7 10 -4 6 3 10 8 10 11 0 2 -4 4 -10 4 -5 0 -10
-5 -10 -11z"/>
<path d="M820 610 c-7 -17 -10 -33 -6 -37 3 -3 6 -1 6 6 0 9 9 11 31 6 22 -5
34 -3 40 6 8 12 11 11 19 -1 7 -11 10 -7 10 18 0 28 -3 32 -26 32 -23 0 -25
-3 -20 -25 4 -15 2 -25 -4 -25 -6 0 -15 11 -20 25 -12 32 -15 31 -30 -5z m90
16 c0 -11 -19 -15 -25 -6 -3 5 1 10 9 10 9 0 16 -2 16 -4z"/>
<path d="M970 616 c5 -13 6 -27 3 -30 -4 -3 -2 -6 4 -6 6 0 13 8 17 18 3 9 9
24 13 32 5 13 4 13 -10 1 -11 -9 -17 -10 -17 -2 0 6 -4 11 -10 11 -6 0 -6 -9
0 -24z"/>
<path d="M1027 633 c-13 -13 -7 -53 8 -53 8 0 18 0 22 -1 4 0 9 4 11 9 2 6 -6
8 -18 5 -18 -5 -21 -2 -18 13 2 10 11 18 21 18 9 -1 14 2 11 7 -6 11 -28 12
-37 2z"/>
<path d="M1090 615 c-13 -34 -13 -35 5 -29 8 4 21 1 29 -5 7 -6 15 -9 18 -6 2
3 55 6 116 7 76 1 109 5 102 12 -5 5 -10 18 -10 28 0 10 -5 18 -11 18 -6 0 -9
-9 -6 -20 3 -11 1 -18 -4 -14 -5 3 -9 -1 -9 -8 -1 -8 -6 -6 -15 6 -13 17 -15
18 -15 3 0 -9 -4 -17 -9 -17 -15 0 -7 34 9 42 11 5 9 7 -7 7 -17 1 -23 -5 -23
-20 0 -17 -3 -19 -13 -10 -8 6 -17 8 -20 4 -4 -3 -10 3 -14 13 -6 16 -8 14
-13 -11 l-6 -30 -16 30 -16 30 -11 -28 c-11 -28 -31 -29 -31 -2 0 26 -20 26
-30 0z m80 -15 c0 -5 -5 -10 -11 -10 -5 0 -7 5 -4 10 3 6 8 10 11 10 2 0 4 -4
4 -10z m67 -6 c-3 -3 -12 -4 -19 -1 -8 3 -5 6 6 6 11 1 17 -2 13 -5z"/>
<path d="M290 616 c0 -3 9 -10 20 -16 11 -6 20 -8 20 -6 0 3 -9 10 -20 16 -11
6 -20 8 -20 6z"/>
<path d="M780 590 c0 -5 5 -10 11 -10 5 0 7 5 4 10 -3 6 -8 10 -11 10 -2 0 -4
-4 -4 -10z"/>
</g>
</svg>
