<svg xmlns="http://www.w3.org/2000/svg" width="62" height="59" viewBox="0 0 62 59"><path fill="#333" d="M59.68 37.94a8.02 8.02 0 0 0-3.11-2.75c.42-5.58-1.28-10.24-3.88-10.46l-.09-.01a24.23 24.23 0 0 0-4.5-13.41A24.38 24.38 0 0 0 28.32 1 24.35 24.35 0 0 0 8.55 11.3a24.25 24.25 0 0 0-4.5 13.43h-.1c-2.64.23-4.36 5.04-3.86 10.74.51 5.7 3.05 10.14 5.69 9.91l8.61-.75a2.76 2.76 0 0 0 1.86-.96c.47-.55.7-1.27.63-1.99l-1.34-15.22a2.75 2.75 0 0 0-2.98-2.47l-2.28.2a18.08 18.08 0 0 1 3.34-9.33 17.9 17.9 0 0 1 14.7-7.7 17.9 17.9 0 0 1 14.7 7.7 17.96 17.96 0 0 1 3.34 9.31l-2.27-.2a2.74 2.74 0 0 0-2.98 2.48l-1.35 15.22a2.72 2.72 0 0 0 2.5 2.95l8.6.76c1.94.16 3.83-2.2 4.89-5.73a3.85 3.85 0 0 1 .78 4.22l-2.73 6.24a5.22 5.22 0 0 1-4.79 3.11h-3.68a2.34 2.34 0 0 0-2.23-1.66h-6.82a2.36 2.36 0 0 0-2.37 2.35v2.73c0 1.3 1.06 2.36 2.37 2.36h6.82c1.06 0 1.93-.71 2.23-1.67h3.68c3.73 0 7.1-2.2 8.59-5.59l2.73-6.23a7.92 7.92 0 0 0-.65-7.57z"/></svg>