<svg xmlns="http://www.w3.org/2000/svg" width="63" height="63" viewBox="0 0 63 63"><path fill="#333" d="M32 1a31 31 0 1 0 0 62 31 31 0 0 0 0-62zM20 8.26c-.56.77-1.09 1.6-1.6 2.48a33.3 33.3 0 0 0-2.05 4.34 61.35 61.35 0 0 1-3.82-1.18c2.13-2.3 4.65-4.21 7.47-5.64zM9.31 18.12c1.82.68 3.66 1.28 5.5 1.8a48.64 48.64 0 0 0-1.39 9.55h-7.9c.39-4.13 1.73-7.99 3.8-11.35zm0 27.76a26.4 26.4 0 0 1-3.8-11.35h7.91c.16 3.32.63 6.54 1.4 9.55a66.64 66.64 0 0 0-5.5 1.8zm3.22 4.22c1.26-.44 2.54-.84 3.82-1.19.6 1.54 1.29 3 2.06 4.35.5.88 1.03 1.7 1.59 2.48a26.75 26.75 0 0 1-7.47-5.64zm16.94 7.18c-3.25-1.21-6.12-4.7-8.12-9.52 2.7-.5 5.4-.8 8.12-.92zm0-15.51c-3.25.13-6.5.51-9.72 1.14-.66-2.6-1.1-5.42-1.26-8.38h10.98zm0-12.3H18.49c.16-2.96.6-5.78 1.26-8.39 3.22.64 6.47 1.02 9.72 1.15zm0-12.32a58.56 58.56 0 0 1-8.12-.92c2-4.82 4.87-8.3 8.12-9.52zm25.21.97a26.4 26.4 0 0 1 3.8 11.35h-7.9a48.65 48.65 0 0 0-1.4-9.56 65.42 65.42 0 0 0 5.5-1.8zm-3.2-4.23a60.7 60.7 0 0 1-3.83 1.2c-.6-1.54-1.3-3-2.06-4.35a27.7 27.7 0 0 0-1.6-2.48 26.77 26.77 0 0 1 7.48 5.63zM34.52 6.71c3.24 1.22 6.11 4.7 8.12 9.52-2.7.5-5.4.8-8.12.92zm9.72 14.38c.66 2.6 1.1 5.42 1.25 8.38H34.53v-7.24c3.25-.13 6.5-.51 9.72-1.14zm1.25 13.44c-.15 2.96-.6 5.78-1.25 8.38a63.62 63.62 0 0 0-9.72-1.14v-7.24zM34.53 57.28V46.84c2.72.12 5.43.43 8.12.92-2 4.82-4.88 8.31-8.12 9.52zM44 55.74c.55-.77 1.09-1.6 1.59-2.48.77-1.36 1.46-2.81 2.06-4.35 1.28.35 2.56.75 3.82 1.2A26.78 26.78 0 0 1 44 55.73zm10.68-9.86a66.54 66.54 0 0 0-5.5-1.8c.77-3 1.24-6.23 1.4-9.55h7.9a26.4 26.4 0 0 1-3.8 11.35z"/></svg>